<svg preserveAspectRatio="none" overflow="visible" style="display: block;" width="104.195" height="104.401" viewBox="0 0 104.195 104.401" fill="none" xmlns="http://www.w3.org/2000/svg">
<path id="Vector" d="M82.6788 82.5244L89.2504 89.0959C95.3448 82.9346 99.9058 75.24 102.391 66.8976L93.5048 64.2759C95.1396 58.7603 95.6493 53.0071 95.0035 47.321L104.195 46.2995C103.139 37.687 100.178 29.2085 95.0361 22.1618L87.512 27.4397C86.0824 25.4658 84.4822 23.5244 82.6768 21.7211C80.3272 19.3715 77.809 17.3976 75.1528 15.6958L80.0551 7.86517C72.7017 3.30406 64.1906 0.442708 55.5091 0L54.9304 9.22578C49.2442 8.85212 43.491 9.63397 38.0445 11.5409L35.0146 2.79231C26.7413 5.61711 19.2863 10.623 13.5311 17.0564L20.3748 23.2868C16.425 27.6449 13.5311 32.6487 11.6588 37.9266L2.94273 34.8622C-0.0181299 43.0665 -0.700505 51.9877 0.696664 60.5332L9.85545 59.069C10.7409 64.6516 12.7493 70.0656 15.8482 75.0024L8.01755 79.9047C12.6132 87.3596 19.1503 93.3524 26.7088 97.7105L31.2374 89.6422C36.3103 92.467 41.8258 94.2379 47.4429 94.8166L46.4214 104.077C55.036 105.064 63.8861 103.77 71.9543 100.537L68.4816 91.9573C73.6215 89.8798 78.4914 86.7118 82.6788 82.5244ZM33.5179 70.882C23.1691 60.5332 23.1691 43.7143 33.5179 33.3635C43.8667 23.0147 60.6856 23.0127 71.0365 33.3635C81.3853 43.7123 81.3527 60.4986 71.0019 70.8474C60.6511 81.1983 43.8667 81.2308 33.5179 70.882Z" fill="white"/>
</svg>
